<svg viewBox="0 0 40 40" xmlns="http://www.w3.org/2000/svg"><title>close-dark</title><g fill="#383F47" fill-rule="nonzero"><path d="M20 2C10.0589 2 2 10.0589 2 20s8.0589 18 18 18 18-8.0589 18-18S29.9411 2 20 2zm0-2c11.046 0 20 8.9543 20 20s-8.9543 20-20 20S0 31.0457 0 20 8.9543 0 20 0z"/><path d="M21.414 20l5.244-5.243c.39074-.39074.39074-1.0243 0-1.415-.39074-.39074-1.0243-.39074-1.415 0L20 18.586l-5.243-5.244c-.39074-.39074-1.0243-.39074-1.415 0-.39074.39074-.39074 1.0243 0 1.415L18.586 20l-5.244 5.243c-.39074.39074-.39074 1.0243 0 1.415s1.0243.39074 1.415 0L20 21.414l5.243 5.244c.39074.39074 1.0243.39074 1.415 0s.39074-1.0243 0-1.415L21.414 20z"/></g></svg>